<svg xmlns="http://www.w3.org/2000/svg" version="1.1" xmlns:xlink="http://www.w3.org/1999/xlink" xmlns:svgjs="http://svgjs.com/svgjs" width="1920" height="1080" preserveAspectRatio="none" viewBox="0 0 1920 1080"><g mask="url(&quot;#SvgjsMask1002&quot;)" fill="none"><rect width="1920" height="1080" x="0" y="0" fill="#0e2a47"></rect><path d="M270 202.5C235.22 203.78 228.46 237.23 228.46 270C228.46 298.53 238.31 320.52 270 325.1C394.08 343.02 440.12 259.59 540 315C633.82 367.04 574.52 456.57 657.39 540C709.52 592.47 737.65 586.8 810 586.8C845.87 586.8 846.12 568.07 873.82 540C981.12 431.27 953.76 365.63 1080 313.2C1191.85 266.75 1226.17 358.06 1350 342.25C1395.37 336.46 1418.4 305.43 1418.4 270C1418.4 236 1394.17 210.43 1350 203.38C1224.97 183.43 1215.07 212 1080 216C945.07 220 944.3 208.81 810 219.38C674.3 230.06 674.28 262.71 540 258.51C404.28 254.27 390.99 198.04 270 202.5" stroke="rgba(51, 121, 194, 0.58)" stroke-width="2"></path><path d="M2101.62 0C2133.44 3.44 2153.78 0.4 2160 29.19C2182.97 135.4 2160 149.6 2160 270C2160 381.38 2179.01 389.54 2160 492.75C2154.14 524.54 2110.26 515.18 2110.26 540C2110.26 567.44 2153.46 561.79 2160 597.27C2178.33 696.79 2160 703.63 2160 810C2160 908.88 2193.35 927.01 2160 1007.75C2137.59 1062.01 2110.05 1063.52 2048.48 1080C1975.05 1099.65 1969.24 1080 1890 1080C1755 1080 1755 1080 1620 1080C1485 1080 1485 1080 1350 1080C1265.34 1080 1217.34 1131.93 1180.68 1080C1122.04 996.93 1196.69 929.2 1159.41 810C1146.35 768.24 1114.9 758.08 1080 758.08C1056.44 758.08 1049.24 779.33 1042.5 810C1013.88 940.29 1076.39 1002.08 1009.29 1080C960.14 1137.08 909.64 1080 810 1080C675 1080 675 1080 540 1080C420.88 1080 352.66 1143.18 301.76 1080C243.91 1008.18 335.24 934.82 322.5 810C319.36 779.27 296.53 768.91 270 768.91C242.49 768.91 217.02 778.45 214.41 810C204.16 933.99 300.73 1008.92 244.29 1080C193.53 1143.92 58.02 1144.13 0 1080C-64.13 1009.13 0 945 0 810C0 725.24 -22.41 717.51 0 640.47C16.86 582.51 78.55 585.34 78.55 540C78.55 504.68 12.65 522.63 0 479.15C-26.63 387.63 0 374.58 0 270C0 135 -67.5 67.5 0 0C67.5 -67.5 135 0 270 0C405 0 405 0 540 0C675 0 675 0 810 0C945 0 945 0 1080 0C1215 0 1215 0 1350 0C1485 0 1485 0 1620 0C1755 0 1755 0 1890 0C1995.81 0 1998.44 -11.15 2101.62 0" stroke="rgba(51, 121, 194, 0.58)" stroke-width="2"></path><path d="M1890 801.56C1883.95 801.56 1877.44 804.55 1877.44 810C1877.44 818.08 1884.19 828.62 1890 828.62C1895.47 828.62 1900 818.36 1900 810C1900 804.83 1895.23 801.56 1890 801.56" stroke="rgba(51, 121, 194, 0.58)" stroke-width="2"></path><path d="M270 33.75C167 72.21 208.52 161.14 124.62 270C73.52 336.3 37.19 384.08 0 384.08C-25.12 384.08 0 327.04 0 270C0 135 -67.5 67.5 0 0C67.5 -67.5 135 0 270 0C405 0 405 0 540 0C675 0 675 0 810 0C945 0 945 0 1080 0C1215 0 1215 0 1350 0C1485 0 1485 0 1620 0C1755 0 1755 0 1890 0C1904.6 0 1905.99 -5.89 1919.19 0C2040.99 54.32 2082.6 33.63 2160 120.41C2203 168.63 2160 195.2 2160 270C2160 339.19 2189.09 351.68 2160 408.38C2119.82 486.68 2086.74 470.43 2021.45 540C1951.74 614.29 1965.21 628.62 1890 696.09C1814.72 763.62 1720.47 736.49 1720.47 810C1720.47 919.13 1805.5 935.52 1890 1061.38C1896.13 1070.52 1901.74 1073.93 1901.74 1080C1901.74 1083.24 1895.87 1080 1890 1080C1755 1080 1755 1080 1620 1080C1485 1080 1485 1080 1350 1080C1322.54 1080 1295.08 1102.07 1295.08 1080C1295.08 977.45 1317.89 953.23 1350 830.77C1353.29 818.23 1365.88 818.89 1365.88 810C1365.88 803.68 1357.84 805.34 1350 800.36C1214.9 714.48 1208.12 722.65 1080 628.27C1031.39 592.47 996.55 584.54 996.55 540C996.55 494.51 1024.39 464.35 1080 448.2C1201.12 413.01 1234.38 485.41 1350 437.32C1448.58 396.31 1508.4 352.06 1508.4 270C1508.4 191.25 1444.79 165 1350 115.71C1230.59 53.62 1215.11 47.7 1080 47.25C945.11 46.8 947 96.75 810 113.91C677 130.57 672.08 134.5 540 114.89C402.08 94.42 374.69 -5.34 270 33.75" stroke="rgba(51, 121, 194, 0.58)" stroke-width="2"></path><path d="M1890 135C1876.22 135 1859.14 207.61 1859.14 270C1859.14 288.28 1875.4 296.34 1890 296.34C1902.83 296.34 1914 286.64 1914 270C1914 205.97 1903.65 135 1890 135" stroke="rgba(51, 121, 194, 0.58)" stroke-width="2"></path><path d="M201.27 540C201.27 500.89 229.64 462.86 270 462.86C329.17 462.86 400.34 500.51 400.34 540C400.34 580.17 328.71 622.17 270 622.17C229.18 622.17 201.27 580.55 201.27 540" stroke="rgba(51, 121, 194, 0.58)" stroke-width="2"></path><path d="M0 797.44C4.9 797.44 15.88 800.95 15.88 810C15.88 840.98 4.02 877.5 0 877.5C-3.92 877.5 0 843.75 0 810C0 803.72 -3.04 797.44 0 797.44" stroke="rgba(51, 121, 194, 0.58)" stroke-width="2"></path><path d="M510 810C510 780.72 512.04 765.57 540 753.16C662.04 698.97 688.74 659.94 810 676.8C893.12 688.36 924.05 726.26 948.75 810C983.52 927.86 977.13 986.2 928.93 1080C907.76 1121.2 869.46 1080 810 1080C703.72 1080 666.8 1129.53 597.45 1080C531.8 1033.1 570.98 982.8 540 887.14C527.26 847.8 510 847.71 510 810" stroke="rgba(51, 121, 194, 0.58)" stroke-width="2"></path><path d="M2025 810C2025 755.97 2118.67 699.55 2160 699.55C2186.17 699.55 2160 754.78 2160 810C2160 861.34 2185.45 912.68 2160 912.68C2117.95 912.68 2025 862.54 2025 810" stroke="rgba(51, 121, 194, 0.58)" stroke-width="2"></path><path d="M83.79 0C91.76 103.67 58.8 138.82 20.77 270C16.91 283.32 6.2 289.01 0 289.01C-4.19 289.01 0 279.5 0 270C0 135 -31.97 103.03 0 0C9.92 -31.97 81.38 -31.33 83.79 0" stroke="rgba(51, 121, 194, 0.58)" stroke-width="2"></path><path d="M810 8.44C771.84 8.44 732.86 2.12 732.86 0C732.86 -2.1 771.43 0 810 0C823.5 0 837 -2.06 837 0C837 2.16 823.91 8.44 810 8.44" stroke="rgba(51, 121, 194, 0.58)" stroke-width="2"></path><path d="M1350 28.05C1307.35 28.05 1266.92 7.2 1266.92 0C1266.92 -6.82 1308.46 0 1350 0C1433.07 0 1516.15 -6.96 1516.15 0C1516.15 7.06 1431.96 28.05 1350 28.05" stroke="rgba(51, 121, 194, 0.58)" stroke-width="2"></path><path d="M1598.4 270C1637.79 210.24 1603.34 122.73 1620 122.73C1637.28 122.73 1619.82 211.79 1666.29 270C1754.82 380.91 1787.97 357.55 1890 460.98C1921.14 492.55 1932.63 502.68 1932.63 540C1932.63 567.51 1917.99 573.71 1890 590.63C1761.68 668.21 1751.63 736.64 1620 729C1481.63 720.97 1487.31 639.39 1350 559.29C1325.31 544.89 1296 546.89 1296 540C1296 533.44 1330.17 550.09 1350 532.39C1481.37 415.09 1502.79 415.07 1598.4 270" stroke="rgba(51, 121, 194, 0.58)" stroke-width="2"></path><path d="M2064 270C2064 241.63 2128.41 211.62 2160 211.62C2176.41 211.62 2160 240.81 2160 270C2160 297 2175.79 324 2160 324C2127.79 324 2064 297.82 2064 270" stroke="rgba(51, 121, 194, 0.58)" stroke-width="2"></path><path d="M711.82 810C721.58 765.66 764.73 766.8 810 766.8C836.32 766.8 851.38 780.62 855 810C870.67 937.22 868.26 961.87 848.57 1080C845.76 1096.87 829.29 1080 810 1080C775.53 1080 751 1107.33 741.06 1080C701.91 972.33 687.11 922.26 711.82 810" stroke="rgba(51, 121, 194, 0.58)" stroke-width="2"></path><path d="M2150 810C2150 806 2156.94 801.82 2160 801.82C2161.94 801.82 2160 805.91 2160 810C2160 813.81 2161.89 817.61 2160 817.61C2156.89 817.61 2150 813.89 2150 810" stroke="rgba(51, 121, 194, 0.58)" stroke-width="2"></path><path d="M1475.36 1080C1475.36 1028.89 1553.82 911.25 1620 911.25C1679.43 911.25 1726.58 1025 1726.58 1080C1726.58 1109.37 1673.29 1080 1620 1080C1547.68 1080 1475.36 1113.26 1475.36 1080" stroke="rgba(51, 121, 194, 0.58)" stroke-width="2"></path></g><defs><mask id="SvgjsMask1002"><rect width="1920" height="1080" fill="#ffffff"></rect></mask></defs></svg>