<svg xmlns="http://www.w3.org/2000/svg" version="1.1" xmlns:xlink="http://www.w3.org/1999/xlink" xmlns:svgjs="http://svgjs.com/svgjs" width="400" height="500" preserveAspectRatio="none" viewBox="0 0 400 500">
    <g mask="url(&quot;#SvgjsMask1271&quot;)" fill="none">
        <rect width="400" height="500" x="0" y="0" fill="#1e3266"></rect>
        <path d="M406.66666666666663 500L0 500 L0 360.2Q13.61 340.48, 33.333333333333336 354.09Q57.6 358.36, 53.333333333333336 382.62Q70.07 379.36, 73.33333333333334 396.1Q59.28 362.05, 93.33333333333334 348Q102.01 336.68, 113.33333333333334 345.36Q130.11 342.14, 133.33333333333334 358.92Q161.16 366.75, 153.33333333333334 394.58Q145.53 353.44, 186.66666666666669 345.64Q223.46 362.43, 206.66666666666669 399.22Q206.23 365.45, 240.00000000000003 365.01Q241.53 346.54, 260 348.07Q284.9 352.97, 280 377.86Q300.13 377.99, 300 398.12Q293.64 358.43, 333.3333333333333 352.07Q359.07 344.48, 366.66666666666663 370.22Q390.98 374.54, 386.66666666666663 398.85Q372.02 364.21, 406.66666666666663 349.56z" fill="#182f5d"></path>
        <path d="M419.99999999999994 500L0 500 L0 423.27Q0.63 390.56, 33.333333333333336 391.19Q61.58 399.44, 53.333333333333336 427.69Q62.59 403.62, 86.66666666666667 412.88Q89.93 396.14, 106.66666666666667 399.4Q116.71 376.11, 140 386.15Q158.95 385.1, 160 404.04Q178.24 402.28, 180 420.53Q197.19 417.71, 200 434.9Q200.93 402.5, 233.33333333333334 403.43Q240.92 377.68, 266.6666666666667 385.27Q309.32 394.59, 300 437.25Q295.77 399.68, 333.3333333333333 395.45Q370.75 399.53, 366.66666666666663 436.94Q363.12 413.39, 386.66666666666663 409.84Q390.51 380.35, 419.99999999999994 384.2z" fill="#25467d"></path>
        <path d="M406.66666666666663 500L0 500 L0 437.95Q35.38 439.99, 33.333333333333336 475.37Q30.89 452.93, 53.333333333333336 450.48Q54.76 431.91, 73.33333333333334 433.34Q87.55 414.22, 106.66666666666669 428.43Q135.77 424.2, 140.00000000000003 453.31Q162.59 442.56, 173.33333333333337 465.15Q183.84 455.65, 193.33333333333337 466.16Q195.53 448.36, 213.33333333333337 450.56Q214.7 431.93, 233.33333333333337 433.29Q244.79 411.41, 266.6666666666667 422.87Q293.76 416.63, 300 443.72Q331.65 442.04, 333.3333333333333 473.69Q337.02 457.38, 353.3333333333333 461.06Q354 428.4, 386.66666666666663 429.07Q394.7 417.11, 406.66666666666663 425.14z" fill="#356cb1"></path>
        <path d="M419.99999999999994 500L0 500 L0 469.28Q35.91 471.86, 33.333333333333336 507.77Q30.39 484.83, 53.333333333333336 481.89Q71.78 480.33, 73.33333333333334 498.78Q91.14 496.58, 93.33333333333334 514.39Q87.95 489, 113.33333333333334 483.62Q113.95 464.24, 133.33333333333334 464.86Q149.46 447.65, 166.66666666666669 463.78Q193.88 457.66, 200.00000000000003 484.88Q223.11 487.99, 220.00000000000003 511.09Q215.46 473.22, 253.33333333333337 468.68Q268.92 450.93, 286.6666666666667 466.52Q317.04 463.56, 320 493.94Q328.74 469.35, 353.3333333333333 478.09Q362.36 453.78, 386.66666666666663 462.8Q403.58 446.38, 419.99999999999994 463.3z" fill="white"></path>
    </g>
    <defs>
        <mask id="SvgjsMask1271">
            <rect width="400" height="500" fill="#ffffff"></rect>
        </mask>
    </defs>
</svg>