<svg xmlns="http://www.w3.org/2000/svg" version="1.1" xmlns:xlink="http://www.w3.org/1999/xlink" xmlns:svgjs="http://svgjs.com/svgjs" width="1920" height="1080" preserveAspectRatio="none" viewBox="0 0 1920 1080"><g mask="url(&quot;#SvgjsMask1040&quot;)" fill="none"><rect width="1920" height="1080" x="0" y="0" fill="#1e3266"></rect><path d="M1952 1080L0 1080 L0 577.18Q140.45 557.63, 160 698.08Q164.48 542.56, 320 547.03Q358.34 489.37, 416 527.7Q493.77 509.48, 512 587.25Q580.52 495.77, 672 564.3Q699.13 495.43, 768 522.57Q838.6 497.17, 864 567.78Q938.88 482.65, 1024 557.53Q1120.6 494.13, 1184 590.73Q1277.81 588.54, 1280 682.35Q1335.01 577.36, 1440 632.37Q1525.74 558.11, 1600 643.85Q1635.07 582.92, 1696 617.99Q1782.48 544.48, 1856 630.96Q1864.51 543.48, 1952 551.99z" fill="#182f5d"></path><path d="M2048 1080L0 1080 L0 813.57Q86.48 740.05, 160 826.52Q172.1 742.62, 256 754.72Q263.33 666.05, 352 673.37Q389.92 615.29, 448 653.21Q554.58 599.79, 608 706.36Q697.99 636.35, 768 726.34Q903.48 701.82, 928 837.3Q984.85 734.15, 1088 791Q1084.01 691, 1184 687.01Q1256.94 599.95, 1344 672.89Q1409.47 642.36, 1440 707.83Q1542.58 650.41, 1600 753Q1696.57 753.57, 1696 850.13Q1685.78 743.91, 1792 733.7Q1830.63 676.33, 1888 714.96Q2001.42 668.38, 2048 781.81z" fill="#25467d"></path><path d="M1984 1080L0 1080 L0 813.61Q165.17 818.78, 160 983.95Q159.04 887, 256 886.04Q289.65 823.69, 352 857.35Q423.33 832.68, 448 904.02Q569.87 865.88, 608 987.75Q657.65 877.4, 768 927.06Q809.53 808.59, 928 850.11Q985.22 747.33, 1088 804.55Q1207.26 763.81, 1248 883.07Q1338.88 877.95, 1344 968.83Q1356.69 885.52, 1440 898.21Q1436.18 798.39, 1536 794.57Q1638.82 801.39, 1632 904.21Q1750.19 862.4, 1792 980.6Q1827.98 920.59, 1888 956.57Q1929.57 902.13, 1984 943.7z" fill="#356cb1"></path><path d="M2016 1080L0 1080 L0 1078.61Q15.68 934.29, 160 949.97Q253.36 883.33, 320 976.69Q436.93 997.62, 416 1114.55Q409.25 947.8, 576 941.06Q698.49 967.55, 672 1090.04Q774.12 1032.16, 832 1134.28Q882.35 1024.63, 992 1074.98Q1013.7 1000.68, 1088 1022.38Q1109.43 947.81, 1184 969.24Q1249.16 938.4, 1280 1003.56Q1391.23 1018.79, 1376 1130.02Q1360.84 954.86, 1536 939.7Q1618.34 926.04, 1632 1008.38Q1707.49 987.88, 1728 1063.37Q1808.82 1048.18, 1824 1129Q1847.8 1056.8, 1920 1080.61Q1899.4 964.01, 2016 943.42z" fill="white"></path></g><defs><mask id="SvgjsMask1040"><rect width="1920" height="1080" fill="#ffffff"></rect></mask></defs></svg>